HIERARCHY
ROOT Hips
{
	OFFSET 0.000000 0.000000 0.000000 
	CHANNELS 6 Xposition Yposition Zposition Zrotation Yrotation Xrotation
	JOINT LeftUpLeg
	{
		OFFSET 1.363060 -1.794630 0.839290 
		CHANNELS 3 Zrotation Yrotation Xrotation
		JOINT LeftLeg
		{
			OFFSET 2.448110 -6.726130 0.000000 
			CHANNELS 3 Zrotation Yrotation Xrotation
			JOINT LeftFoot
			{
				OFFSET 2.562200 -7.039590 0.000000 
				CHANNELS 3 Zrotation Yrotation Xrotation
				JOINT LeftToeBase
				{
					OFFSET 0.157640 -0.433110 2.322550 
					CHANNELS 3 Zrotation Yrotation Xrotation
					End Site
					{
						OFFSET 0.000000 0.000000 0.000000 
					}
				}
			}
		}
	}
	JOINT RightUpLeg
	{
		OFFSET -1.305520 -1.794630 0.839290 
		CHANNELS 3 Zrotation Yrotation Xrotation
		JOINT RightLeg
		{
			OFFSET -2.542530 -6.985550 0.000000 
			CHANNELS 3 Zrotation Yrotation Xrotation
			JOINT RightFoot
			{
				OFFSET -2.568260 -7.056230 0.000000 
				CHANNELS 3 Zrotation Yrotation Xrotation
				JOINT RightToeBase
				{
					OFFSET -0.164730 -0.452590 2.363150 
					CHANNELS 3 Zrotation Yrotation Xrotation
					End Site
					{
						OFFSET 0.000000 0.000000 0.000000 
					}
				}
			}
		}
	}
	JOINT Spine
	{
		OFFSET 0.028270 2.035590 -0.193380 
		CHANNELS 3 Zrotation Yrotation Xrotation
		JOINT Spine1
		{
			OFFSET 0.056720 2.048850 -0.042750 
			CHANNELS 3 Zrotation Yrotation Xrotation
			JOINT Neck1
			{
				OFFSET -0.054170 1.746240 0.172020 
				CHANNELS 3 Zrotation Yrotation Xrotation
				JOINT Head
				{
					OFFSET 0.104070 1.761360 -0.123970 
					CHANNELS 3 Zrotation Yrotation Xrotation
					End Site
					{
						OFFSET 0.000000 0.000000 0.000000 
					}
				}
			}
			JOINT LeftArm
			{
				OFFSET 3.362410 1.200890 -0.311210 
				CHANNELS 3 Zrotation Yrotation Xrotation
				JOINT LeftForeArm
				{
					OFFSET 4.983000 -0.000000 -0.000000 
					CHANNELS 3 Zrotation Yrotation Xrotation
					JOINT LeftHand
					{
						OFFSET 3.483560 -0.000000 -0.000000 
						CHANNELS 3 Zrotation Yrotation Xrotation
						JOINT LeftHandIndex1
						{
							OFFSET 0.715260 -0.000000 -0.000000 
							CHANNELS 3 Zrotation Yrotation Xrotation
							End Site
							{
								OFFSET 0.000000 0.000000 0.000000 
							}
						}
					}
				}
			}
			JOINT RightArm
			{
				OFFSET -3.136600 1.374050 -0.404650 
				CHANNELS 3 Zrotation Yrotation Xrotation
				JOINT RightForeArm
				{
					OFFSET -5.241900 -0.000000 -0.000000 
					CHANNELS 3 Zrotation Yrotation Xrotation
					JOINT RightHand
					{
						OFFSET -3.444170 -0.000000 -0.000000 
						CHANNELS 3 Zrotation Yrotation Xrotation
						JOINT RightHandIndex1
						{
							OFFSET -0.622530 -0.000000 -0.000000 
							CHANNELS 3 Zrotation Yrotation Xrotation
							End Site
							{
								OFFSET 0.000000 0.000000 0.000000 
							}
						}
					}
				}
			}
		}
	}
}
MOTION
Frames: 15
Frame Time: 0.041667
18.957171 17.445562 -14.922876 -3.183462 -4.806031 -1.774257 -16.197584 -3.473811 0.360551 0.972980 8.799372 28.286515 1.843370 -1.221580 -19.842705 1.127600 -6.744700 -18.961200 26.467266 -5.710816 -0.797868 -2.355249 -8.671198 28.932700 -3.293180 19.515546 -11.962497 -3.293100 -11.155100 32.804700 1.004096 -3.400631 -7.223213 -5.248852 -2.079127 -7.664559 2.569623 10.191959 3.157894 -6.571500 4.159000 4.628900 1.942266 13.389386 -16.270284 49.732087 -45.772164 -40.915870 1.270648 -3.234093 -97.213419 -7.125000 0.000000 0.000000 -2.611404 -13.809877 -54.786419 -35.360524 35.193900 -22.826073 -0.201117 3.134522 -40.562021 7.125000 0.000000 0.000000 
18.954439 17.453149 -14.930665 -2.907708 -4.840258 -1.761856 -16.420571 -3.275552 0.352275 0.917067 8.719783 28.058076 1.767803 -0.910830 -19.768510 1.447600 -7.605700 -21.522600 26.218266 -5.480704 -0.915716 -2.381335 -8.730920 29.098710 -3.291861 19.397127 -11.979292 -3.299000 -11.164000 32.835000 1.028328 -3.246374 -7.222412 -5.068220 -1.965304 -7.670574 2.355038 10.078417 2.728008 -6.728200 4.005700 4.390200 1.186825 12.597654 -14.535553 47.527229 -44.693937 -38.512822 1.391456 -3.297079 -97.157190 -7.125000 0.000000 0.000000 -3.091558 -14.018607 -53.757271 -31.350334 32.700669 -19.179133 -0.016982 2.660910 -38.323260 7.125000 0.000000 0.000000 
18.953833 17.457701 -14.936431 -2.976326 -4.797395 -1.779591 -16.304130 -3.230257 0.333583 0.919158 8.727930 28.077422 1.751061 -0.818656 -19.781537 1.533500 -7.818100 -22.163000 26.336732 -5.394217 -0.815883 -2.353046 -8.704759 29.012769 -3.277570 19.095082 -12.000124 -3.212000 -11.030600 32.383200 1.059590 -3.214646 -7.141870 -5.267415 -1.960347 -7.203555 2.298216 10.010875 2.358768 -6.761900 3.877900 4.207800 0.571145 12.093647 -13.174048 45.562631 -43.753313 -36.346524 1.494799 -3.413834 -96.675238 -7.125000 0.000000 0.000000 -3.399134 -13.958157 -53.150493 -27.666519 30.181469 -16.151678 0.182481 2.235150 -35.803561 7.125000 0.000000 0.000000 
18.953934 17.463669 -14.943917 -3.225543 -4.792860 -1.670675 -16.045933 -3.254361 0.215241 0.889410 8.716808 28.024130 1.644272 -0.296316 -19.781862 1.754100 -8.333900 -23.732800 26.651626 -5.196706 -0.861128 -2.336734 -8.697948 28.988509 -3.230901 19.089589 -11.717834 -3.295600 -11.158900 32.817700 1.053897 -3.543823 -7.092587 -6.309204 -2.234560 -6.958348 2.274394 10.362178 2.082022 -7.056300 3.981600 4.280500 0.742572 12.500040 -11.632543 43.681964 -42.846248 -34.305215 1.546499 -3.526445 -96.089978 -7.125000 0.000000 0.000000 -3.448795 -13.261059 -52.406784 -24.046081 27.377668 -13.429820 0.409119 1.809199 -33.673970 7.125000 0.000000 0.000000 
18.954844 17.471054 -14.951706 -3.335053 -4.768593 -1.614389 -15.868950 -3.280460 0.061164 0.867657 8.717473 28.022946 1.524720 0.300235 -19.818867 2.030300 -8.928900 -25.573300 26.852531 -5.075035 -0.914022 -2.320127 -8.672364 28.928791 -3.179736 19.198746 -11.341549 -3.367400 -11.267300 33.186800 1.192841 -3.329413 -7.169747 -5.793758 -2.073261 -7.321355 2.219811 9.971249 1.966565 -6.986700 3.763200 4.155500 -0.419744 11.748726 -9.094309 41.804396 -41.754740 -32.157894 1.510625 -3.683452 -95.016285 -7.125000 0.000000 0.000000 -4.604150 -13.791041 -51.268293 -21.086932 24.798249 -11.173770 0.608215 1.439542 -31.890620 7.125000 0.000000 0.000000 
18.958283 17.473583 -14.955954 -3.223615 -4.768825 -1.695385 -16.007514 -3.283106 0.140408 0.874804 8.711933 28.021176 1.567018 0.094230 -19.814028 1.921000 -8.699600 -24.860100 26.659585 -5.156321 -0.896069 -2.324953 -8.667521 28.920341 -3.181356 19.313711 -11.293230 -3.286400 -11.144900 32.770200 1.214154 -3.397886 -7.189307 -6.180168 -2.141074 -7.680182 2.205622 9.894012 1.564521 -7.192000 3.668600 3.872100 -0.656028 11.619466 -8.366820 39.977856 -40.994809 -30.760624 1.630924 -3.442956 -93.873520 -7.125000 0.000000 0.000000 -4.863665 -13.457534 -50.850645 -18.299415 22.207612 -9.255521 0.811556 0.967721 -29.586582 7.125000 0.000000 0.000000 
18.964252 17.471762 -14.962631 -3.195249 -4.816021 -1.762670 -16.068180 -3.226773 0.208700 0.887851 8.701979 28.008911 1.644923 -0.269178 -19.823565 1.804400 -8.446200 -24.077800 26.541352 -5.216995 -0.900838 -2.333034 -8.671200 28.931528 -3.182248 19.476618 -11.234520 -3.277900 -11.131900 32.726100 1.205815 -3.544921 -7.196858 -6.934055 -2.288396 -8.045206 2.306001 10.130226 1.007126 -7.321900 3.710100 3.522400 -0.667361 11.874355 -7.275133 38.309607 -40.254284 -29.402059 1.743351 -3.289205 -93.279797 -7.125000 0.000000 0.000000 -4.841808 -12.777642 -51.083852 -15.736218 19.635608 -7.611981 0.995548 0.426859 -27.267595 7.125000 0.000000 0.000000 
18.969714 17.473987 -14.975478 -3.209305 -4.857407 -1.739745 -16.038238 -3.152268 0.118318 0.880680 8.688867 27.977193 1.628616 -0.196546 -19.810190 1.886000 -8.624400 -24.627400 26.559572 -5.149083 -1.003742 -2.330699 -8.678940 28.943716 -3.172022 19.434024 -11.179012 -3.251700 -11.091700 32.589800 1.236179 -3.579387 -7.224915 -7.346520 -2.346014 -8.420041 2.422689 10.287483 0.512820 -7.318200 3.719000 3.209600 -1.027812 11.925842 -5.983350 36.649791 -39.429657 -27.946327 1.820183 -3.209876 -92.435708 -7.125000 0.000000 0.000000 -5.010026 -12.380233 -51.551428 -13.545956 17.212637 -6.220165 1.176999 -0.102219 -25.160354 7.125000 0.000000 0.000000 
18.971940 17.480057 -14.989843 -3.238354 -4.911057 -1.719348 -15.981393 -3.127319 0.026728 0.866465 8.677010 27.939183 1.579705 0.006134 -19.761523 1.940800 -8.741700 -24.990500 26.623071 -5.065390 -1.084892 -2.328985 -8.681912 28.954900 -3.147982 19.461522 -11.009491 -3.301300 -11.167500 32.846900 1.281354 -3.559376 -7.249265 -7.513265 -2.360257 -8.629398 2.515539 10.123396 0.494796 -7.320100 3.638500 3.203800 -1.591689 11.582734 -5.344042 34.734882 -38.381551 -26.180052 1.874180 -3.140577 -90.901968 -7.125000 0.000000 0.000000 -5.150405 -12.171546 -52.699414 -11.761997 15.034188 -5.111600 1.288870 -0.635039 -22.289968 7.125000 0.000000 0.000000 
18.971434 17.483800 -15.004308 -3.303561 -5.054979 -1.695387 -15.928943 -3.209827 0.022447 0.848063 8.664717 27.894156 1.533596 0.222177 -19.756946 1.935500 -8.730400 -24.955700 26.713050 -4.967303 -1.136618 -2.329700 -8.681954 28.964267 -3.110955 19.657177 -10.701103 -3.443500 -11.380500 33.574100 1.312654 -3.523267 -7.242072 -7.678503 -2.368530 -8.648548 2.565489 9.936135 0.555266 -7.365500 3.546500 3.270200 -2.083697 11.109765 -5.205070 32.747350 -37.237067 -24.355752 1.955335 -3.091805 -89.817401 -7.125000 0.000000 0.000000 -5.117719 -11.933071 -55.053758 -10.283178 13.087207 -4.245447 1.238631 -1.166902 -18.725692 7.125000 0.000000 0.000000 
18.972547 17.482889 -15.017256 -3.223878 -5.323791 -1.706425 -16.074451 -3.242653 0.108437 0.837008 8.650892 27.857681 1.514172 0.291962 -19.731586 1.845500 -8.536500 -24.356000 26.582330 -4.919651 -1.189414 -2.334532 -8.686056 28.973680 -3.095032 19.850381 -10.518368 -3.474700 -11.426400 33.731900 1.300589 -3.426571 -7.210035 -7.869596 -2.341641 -8.618178 2.600545 9.988510 0.278121 -7.369500 3.510900 3.177000 -2.426050 10.714970 -5.063505 30.855952 -36.105243 -22.638361 2.054726 -3.068038 -89.355456 -7.125000 0.000000 0.000000 -4.880083 -11.665030 -58.061444 -9.084426 11.359593 -3.542167 1.186175 -1.615158 -15.491011 7.125000 0.000000 0.000000 
18.975076 17.482384 -15.027271 -3.157143 -5.632477 -1.802480 -16.204738 -3.108567 0.202749 0.826970 8.640720 27.844000 1.436913 0.601883 -19.659413 1.908600 -8.672900 -24.777500 26.441053 -4.898722 -1.144067 -2.344241 -8.690086 28.990971 -3.099048 20.026127 -10.482520 -3.443600 -11.380600 33.574600 1.270864 -3.328239 -7.189419 -8.048457 -2.320729 -8.676240 2.513154 10.070547 0.129491 -7.439100 3.505100 3.216000 -2.658814 10.379736 -4.855544 28.998418 -34.925473 -20.965385 2.168901 -3.035970 -89.153438 -7.125000 0.000000 0.000000 -4.507601 -11.436885 -61.506039 -8.163085 9.861054 -2.991131 1.128463 -1.995774 -12.280406 7.125000 0.000000 0.000000 
18.976593 17.485823 -15.039005 -3.270034 -5.841318 -1.873776 -16.119908 -2.991297 0.215348 0.815716 8.642469 27.856488 1.323030 1.120727 -19.638855 2.124400 -9.120500 -26.172800 26.544825 -4.847667 -1.076366 -2.346526 -8.689890 28.997191 -3.099550 20.102034 -10.478511 -3.398900 -11.314400 33.347600 1.260091 -3.301295 -7.176186 -8.114196 -2.325980 -8.727944 2.384843 9.955140 0.225505 -7.553500 3.448500 3.311900 -2.883457 10.076981 -4.557528 27.164913 -33.682583 -19.313893 2.272383 -3.018065 -89.062650 -7.125000 0.000000 0.000000 -4.123134 -11.253840 -65.708291 -7.488292 8.611952 -2.586110 0.964651 -2.357467 -8.830855 7.125000 0.000000 0.000000 
18.977504 17.489970 -15.057922 -3.432569 -5.989949 -1.830352 -15.948948 -2.979279 0.107513 0.819092 8.659085 27.895771 1.296324 1.263692 -19.664450 2.168100 -9.207800 -26.447400 26.751354 -4.749221 -1.119663 -2.331935 -8.679903 28.958511 -3.085551 20.043943 -10.414296 -3.384300 -11.292600 33.273300 1.252847 -3.291127 -7.166398 -8.048775 -2.321992 -8.766874 2.391153 9.842985 0.234166 -7.527100 3.395500 3.288400 -3.167856 9.718336 -4.506573 25.323996 -32.354879 -17.657325 2.343146 -2.984554 -88.741397 -7.125000 0.000000 0.000000 -3.720513 -11.117088 -70.340717 -7.032090 7.602917 -2.284809 0.773931 -2.622565 -5.667883 7.125000 0.000000 0.000000 
18.976087 17.494219 -15.078761 -3.702706 -6.127764 -1.737046 -15.642331 -3.035286 -0.024313 0.834133 8.672904 27.916499 1.349754 0.982711 -19.601784 1.992900 -8.851300 -25.331200 27.089471 -4.687267 -1.206716 -2.313715 -8.670357 28.914997 -3.074001 19.913694 -10.400587 -3.366000 -11.265200 33.179500 1.241302 -3.298087 -7.157732 -7.917011 -2.322393 -8.829274 2.443016 9.836831 0.145124 -7.411200 3.385900 3.211200 -3.434221 9.338162 -4.850780 23.471236 -30.943339 -16.037059 2.422298 -2.907430 -88.408187 -7.125000 0.000000 0.000000 -3.211535 -11.042278 -74.403661 -6.777588 6.869143 -2.070128 0.680751 -2.731609 -3.555108 7.125000 0.000000 0.000000 
